#!OML:ASF E:\Mandelcareful walks\Project 1\Capture day 1\Session 1\Subject1.ASF
:FULLY-SPECIFIED
:DEGREES
1658
root 17.9763 15.0573 6.34975 -360.203 110.112 -364.111
lowerback 50.4014 -0.090898 -0.31597
upperback 7.03047 1.18902 -3.30056
thorax -12.8031 1.40302 -4.24385
lowerneck -28.6931 6.47452 1.74175
upperneck 19.9553 14.0105 -17.7588
head 13.1392 4.23702 -4.29186
rclavicle -2.05742e-014 1.78906e-015
rhumerus -11.3571 11.6481 -76.2178
rradius 50.4171
rwrist -22.9708
rhand -21.2141 -23.6224
rfingers 7.12502
rthumb 5.16765 -53.5393
lclavicle -2.05742e-014 1.78906e-015
lhumerus -12.1596 -11.7791 78.478
lradius 52.8451
lwrist 22.3346
lhand -29.6998 -15.7997
lfingers 7.12502
lthumb -3.02754 14.1585
rfemur -26.5599 -19.0988 16.2083
rtibia 67.4259
rfoot -32.7531 -16.1642
rtoes -9.86484
lfemur -50.863 18.6452 -23.0751
ltibia 62.0799
lfoot -12.9162 11.1688
ltoes 5.92741
1659
root 18.0513 15.0408 6.26657 -360.483 110.208 -364.588
lowerback 49.8093 0.0779358 -0.538252
upperback 7.34676 1.30126 -3.44673
thorax -12.342 1.4808 -4.32707
lowerneck -28.964 6.52507 1.77745
upperneck 19.9144 14.0788 -17.7957
head 13.1904 4.2526 -4.29387
rclavicle 9.64106e-015 -4.45278e-014
rhumerus -10.342 12.0948 -76.0464
rradius 50.4141
rwrist -23.1052
rhand -21.1917 -23.6335
rfingers 7.12502
rthumb 5.18927 -53.55
lclavicle 9.64106e-015 -4.45278e-014
lhumerus -11.7134 -11.9696 78.4051
lradius 53.1035
lwrist 22.3889
lhand -29.7906 -14.6464
lfingers 7.12502
lthumb -3.11524 15.3106
rfemur -26.4726 -18.9656 15.6285
rtibia 67.8174
rfoot -32.6812 -16.2349
rtoes -10.5388
lfemur -51.068 18.6632 -23.5316
ltibia 62.8197
lfoot -13.525 10.9705
ltoes 5.69285
1660
root 18.1225 15.011 6.20157 -360.923 110.824 -365.141
lowerback 49.6318 0.0844021 -0.675094
upperback 7.49695 1.26717 -3.54715
thorax -12.1439 1.48983 -4.34956
lowerneck -29.2066 6.51328 1.65258
upperneck 19.8982 14.0917 -17.7054
head 13.2125 4.24741 -4.23194
rclavicle -1.58034e-014 5.26779e-014
rhumerus -9.58763 12.3258 -75.9914
rradius 50.5249
rwrist -23.2534
rhand -21.4435 -23.6814
rfingers 7.12502
rthumb 4.94615 -53.6037
lclavicle -1.58034e-014 5.26779e-014
lhumerus -11.3395 -12.3537 78.3414
lradius 53.2178
lwrist 22.4379
lhand -29.7808 -14.6923
lfingers 7.12502
lthumb -3.10578 15.2648
rfemur -26.2262 -19.1271 15.037
rtibia 68.1918
rfoot -32.7469 -16.2766
rtoes -10.3481
lfemur -51.213 18.1847 -23.9284
ltibia 63.4878
lfoot -14.0496 10.689
ltoes 6.50865
1661
root 18.1858 14.9736 6.13925 -360.643 111.035 -365.036
lowerback 49.5629 0.306021 -0.878361
upperback 7.48949 1.43532 -3.52825
thorax -12.131 1.56745 -4.30775
lowerneck -29.4015 6.47667 1.2716
upperneck 19.8527 14.1477 -17.5235
head 13.19 4.25859 -4.08067
rclavicle -1.21259e-014 -1.22253e-014
rhumerus -9.02544 12.6145 -75.9029
rradius 50.7462
rwrist -23.2241
rhand -21.5915 -23.7393
rfingers 7.12502
rthumb 4.8032 -53.6649
lclavicle -1.21259e-014 -1.22253e-014
lhumerus -11.1272 -12.6696 78.3789
lradius 53.3903
lwrist 22.5308
lhand -29.6405 -15.3095
lfingers 7.12502
lthumb -2.9703 14.6495
rfemur -26.2648 -19.0128 14.7771
rtibia 68.641
rfoot -32.6276 -16.3422
rtoes -11.0274
lfemur -51.5627 18.0583 -24.0601
ltibia 64.236
lfoot -14.6389 10.3312
ltoes 8.19881
1662
root 18.2683 14.9591 6.07107 -360.512 112.021 -364.496
lowerback 50.0636 0.0231157 -0.688232
upperback 7.55189 1.26864 -3.42548
thorax -12.1452 1.51695 -4.2212
lowerneck -29.4208 6.50099 1.0717
upperneck 19.6631 14.2081 -17.4594
head 13.102 4.29103 -4.00183
rclavicle 1.46107e-014 -3.598e-014
rhumerus -8.32852 13.2269 -75.7309
rradius 50.9076
rwrist -23.3272
rhand -21.6521 -23.9047
rfingers 7.12502
rthumb 4.74473 -53.8316
lclavicle 1.46107e-014 -3.598e-014
lhumerus -11.0067 -12.8627 78.4093
lradius 53.696
lwrist 22.6662
lhand -29.4955 -15.774
lfingers 7.12502
lthumb -2.83029 14.187
rfemur -25.0812 -19.4084 14.4056
rtibia 68.8407
rfoot -32.9003 -16.3954
rtoes -11.7982
lfemur -51.0954 17.3496 -23.8851
ltibia 64.8498
lfoot -15.1237 10.0272
ltoes 8.36399
1663
root 18.3214 14.9301 5.99889 -359.931 112.077 -364.38
lowerback 49.5524 0.210452 -0.740987
upperback 7.6222 1.4465 -3.51344
thorax -11.9762 1.59146 -4.35789
lowerneck -29.2693 6.48113 1.1164
upperneck 19.3283 14.0946 -17.5139
head 12.9338 4.27178 -4.04511
rclavicle -1.96797e-014 -3.55328e-014
rhumerus -7.48291 13.643 -75.5697
rradius 50.9266
rwrist -23.3522
rhand -21.5357 -24.0291
rfingers 7.12502
rthumb 4.85706 -53.9534
lclavicle -1.96797e-014 -3.55328e-014
lhumerus -10.9045 -13.1743 78.3812
lradius 54.1077
lwrist 22.6804
lhand -29.5216 -15.5916
lfingers 7.12502
lthumb -2.8554 14.369
rfemur -25.4238 -18.8276 14.3017
rtibia 69.159
rfoot -32.9233 -16.6528
rtoes -12.0852
lfemur -51.8543 17.274 -24.2362
ltibia 65.5016
lfoot -15.3615 10.2157
ltoes 7.27853
1664
root 18.3786 14.9048 5.92651 -359.676 112.172 -364.448
lowerback 49.3119 0.379052 -0.810942
upperback 7.64801 1.59497 -3.64434
thorax -11.8993 1.65961 -4.52922
lowerneck -29.165 6.45141 1.20225
upperneck 18.9851 13.9618 -17.6012
head 12.7768 4.24136 -4.11132
rclavicle -3.10104e-014 3.11595e-014
rhumerus -6.70835 13.8961 -75.4384
rradius 51.0415
rwrist -23.3422
rhand -20.8694 -24.4383
rfingers 7.12502
rthumb 5.50046 -54.347
lclavicle -3.10104e-014 3.11595e-014
lhumerus -10.86 -13.7007 78.3352
lradius 54.6054
lwrist 22.8371
lhand -29.4808 -16.5865
lfingers 7.12502
lthumb -2.81604 13.3747
rfemur -25.4698 -18.3595 14.0465
rtibia 69.3116
rfoot -32.9552 -16.9055
rtoes -12.313
lfemur -52.279 17.1514 -24.5607
ltibia 66.0972
lfoot -15.8024 10.2192
ltoes 7.3221
1665
root 18.4426 14.8871 5.85453 -359.225 112.514 -364.096
lowerback 49.3691 0.34593 -0.744108
upperback 7.62112 1.5884 -3.67427
thorax -11.9393 1.6574 -4.59437
lowerneck -29.1551 6.51719 1.1657
upperneck 18.7041 14.0398 -17.6899
head 12.6803 4.28514 -4.11302
rclavicle 2.68359e-015 5.10877e-014
rhumerus -5.97536 14.666 -75.2383
rradius 51.1797
rwrist -23.4746
rhand -20.3532 -24.7403
rfingers 7.12502
rthumb 5.99882 -54.6353
lclavicle 2.68359e-015 5.10877e-014
lhumerus -10.8343 -14.0086 78.3938
lradius 54.9087
lwrist 23.0391
lhand -29.5016 -17.9477
lfingers 7.12502
lthumb -2.83611 12.0132
rfemur -25.101 -18.3657 13.8657
rtibia 69.3434
rfoot -33.1461 -17.0437
rtoes -12.7862
lfemur -52.3908 16.8583 -24.6248
ltibia 66.6836
lfoot -16.3306 10.0892
ltoes 8.89397
1666
root 18.511 14.8705 5.78592 -358.659 112.937 -363.506
lowerback 49.5648 0.329509 -0.379424
upperback 7.54692 1.73766 -3.82657
thorax -12.0428 1.72125 -5.01337
lowerneck -28.9962 6.42608 1.35375
upperneck 18.5892 13.772 -17.6268
head 12.5771 4.20467 -4.1753
rclavicle -3.93594e-014 1.635e-014
rhumerus -5.60871 14.8411 -75.2549
rradius 51.2932
rwrist -23.4795
rhand -20.5255 -24.4512
rfingers 7.12502
rthumb 5.83251 -54.3509
lclavicle -3.93594e-014 1.635e-014
lhumerus -10.5274 -15.0516 78.2397
lradius 55.0703
lwrist 23.2788
lhand -29.8014 -17.5164
lfingers 7.12502
lthumb -3.12564 12.4404
rfemur -24.5103 -18.4612 13.8427
rtibia 69.2396
rfoot -33.4666 -17.383
rtoes -13.7522
lfemur -52.383 16.565 -24.5364
ltibia 67.247
lfoot -16.8043 9.95432
ltoes 10.6299
1667
root 18.5797 14.8569 5.7201 -358.419 113.404 -363.175
lowerback 49.8405 0.318497 -0.277973
upperback 7.50091 1.78398 -3.89633
thorax -12.1333 1.74906 -5.17121
lowerneck -29.0172 6.37805 1.19106
upperneck 18.4737 13.6542 -17.3591
head 12.4786 4.1777 -4.06694
rclavicle 2.24627e-014 -3.598e-014
rhumerus -5.13784 15.0754 -75.2283
rradius 51.5017
rwrist -23.4003
rhand -20.7877 -24.1104
rfingers 7.12502
rthumb 5.57932 -54.017
lclavicle 2.24627e-014 -3.598e-014
lhumerus -10.2387 -15.8686 77.9507
lradius 55.4132
lwrist 23.567
lhand -30.0321 -16.4974
lfingers 7.12502
lthumb -3.34849 13.456
rfemur -23.8065 -18.5083 13.7668
rtibia 69.0502
rfoot -33.6865 -18.0429
rtoes -15.0449
lfemur -52.2277 16.2078 -24.4452
ltibia 67.7955
lfoot -17.3214 9.66238
ltoes 10.1275
